<?xml version="1.0" encoding="utf-8"?>
<!-- Generator: Adobe Illustrator 16.0.0, SVG Export Plug-In . SVG Version: 6.00 Build 0)  -->
<!DOCTYPE svg PUBLIC "-//W3C//DTD SVG 1.1//EN" "http://www.w3.org/Graphics/SVG/1.1/DTD/svg11.dtd" [
	<!ENTITY ns_extend "http://ns.adobe.com/Extensibility/1.0/">
	<!ENTITY ns_ai "http://ns.adobe.com/AdobeIllustrator/10.0/">
	<!ENTITY ns_graphs "http://ns.adobe.com/Graphs/1.0/">
	<!ENTITY ns_vars "http://ns.adobe.com/Variables/1.0/">
	<!ENTITY ns_imrep "http://ns.adobe.com/ImageReplacement/1.0/">
	<!ENTITY ns_sfw "http://ns.adobe.com/SaveForWeb/1.0/">
	<!ENTITY ns_custom "http://ns.adobe.com/GenericCustomNamespace/1.0/">
	<!ENTITY ns_adobe_xpath "http://ns.adobe.com/XPath/1.0/">
]>
<svg version="1.1" xmlns:x="&ns_extend;" xmlns:i="&ns_ai;" xmlns:graph="&ns_graphs;"
	 xmlns="http://www.w3.org/2000/svg" xmlns:xlink="http://www.w3.org/1999/xlink" x="0px" y="0px" width="1280px" height="800px"
	 viewBox="0 0 1280 800" enable-background="new 0 0 1280 800" xml:space="preserve">
<switch>
	<g i:extraneous="self">
		<g id="User_Avatar">
			<g id="Avatar">
				<g id="BG_15_">
					<circle fill="#EEEEEE" cx="38.994" cy="455.305" r="35"/>
				</g>
				<path fill="#666666" d="M52.523,457.835c0-3.737-1.516-7.12-3.961-9.565c-2.451-2.449-5.832-3.965-9.568-3.965
					s-7.118,1.516-9.568,3.965c-2.446,2.445-3.961,5.828-3.961,9.565c0,3.735,1.515,7.118,3.961,9.564
					c2.451,2.448,5.832,3.964,9.568,3.964s7.118-1.516,9.568-3.964C51.007,464.953,52.523,461.57,52.523,457.835z"/>
				<path fill="#666666" d="M22.758,483.901c0,0.468,0,2.418,0,2.418s2.432,1.426,6.108,2.497c2.823,0.823,6.689,1.488,10.128,1.488
					c3.278,0,6.855-0.531,9.816-1.396c3.253-0.951,6.348-2.552,6.348-2.552s0-1.955,0-2.463c0-5.411-6.296-9.823-16.164-9.823
					C28.847,474.07,22.758,478.49,22.758,483.901z"/>
			</g>
			<g id="Upload_Picture">
				<g id="Layer_78">
					<circle fill="#CB5587" cx="62.001" cy="431.809" r="15"/>
				</g>
				<g id="Layer_79">
					<g>
						<g>
							<path fill="#FFFFFF" d="M68,426.809c-0.935,0-1.911,0-1.911,0l-0.622-1.333c-0.144-0.333-0.717-0.667-1.217-0.667h-4.41
								c-0.501,0-1.074,0.334-1.217,0.667l-0.622,1.333c0,0-1.011,0-2,0c-1.593,0-2,1.333-2,1.333v9.334c0,0,1,1.333,2,1.333
								s10.937,0,12,0s2-1.333,2-1.333v-9.334C70.001,428.142,69.665,426.809,68,426.809z M62.001,436.81c-2.209,0-4-1.791-4-4
								s1.791-4.002,4-4.002c2.209,0,4,1.793,4,4.002S64.21,436.81,62.001,436.81z M62.001,430.142
								c-1.473,0-2.667,1.194-2.667,2.668c0,1.472,1.194,2.666,2.667,2.666c1.473,0,2.667-1.194,2.667-2.666
								C64.667,431.336,63.474,430.142,62.001,430.142z"/>
						</g>
					</g>
				</g>
			</g>
		</g>
	</g>
</switch>
</svg>
