<?xml version="1.0" encoding="utf-8"?>
<!-- Generator: Adobe Illustrator 19.1.0, SVG Export Plug-In . SVG Version: 6.00 Build 0)  -->
<svg version="1.1" id="Layer_1" xmlns="http://www.w3.org/2000/svg" xmlns:xlink="http://www.w3.org/1999/xlink" x="0px" y="0px"
	 viewBox="0 0 612 792" style="enable-background:new 0 0 612 792;" xml:space="preserve">
<style type="text/css">
	.st0{fill:#EFEEEE;}
	.st1{fill:#676767;}
	.st2{fill:#CC5587;}
	.st3{fill:#FFFFFF;}
</style>
<circle class="st0" cx="35" cy="38.3" r="35"/>
<path class="st1" d="M48.5,40.8c0-3.7-1.5-7.1-4-9.6c-2.5-2.4-5.8-4-9.6-4c-3.7,0-7.1,1.5-9.6,4c-2.4,2.4-4,5.8-4,9.6
	c0,3.7,1.5,7.1,4,9.6c2.5,2.4,5.8,4,9.6,4c3.7,0,7.1-1.5,9.6-4C47,48,48.5,44.6,48.5,40.8z"/>
<path class="st1" d="M18.8,66.9c0,0.5,0,2.4,0,2.4s2.4,1.4,6.1,2.5c2.8,0.8,6.7,1.5,10.1,1.5c3.3,0,6.9-0.5,9.8-1.4
	c3.3-1,6.3-2.6,6.3-2.6s0-2,0-2.5c0-5.4-6.3-9.8-16.2-9.8C24.8,57.1,18.8,61.5,18.8,66.9z"/>
<circle class="st2" cx="58" cy="14.8" r="15"/>
<g>
	<g>
		<path class="st3" d="M64,9.8c-0.9,0-1.9,0-1.9,0l-0.6-1.3c-0.1-0.3-0.7-0.7-1.2-0.7h-4.4c-0.5,0-1.1,0.3-1.2,0.7L54,9.8
			c0,0-1,0-2,0c-1.6,0-2,1.3-2,1.3v9.3c0,0,1,1.3,2,1.3s10.9,0,12,0c1.1,0,2-1.3,2-1.3v-9.3C66,11.1,65.7,9.8,64,9.8z M58,19.8
			c-2.2,0-4-1.8-4-4s1.8-4,4-4c2.2,0,4,1.8,4,4S60.2,19.8,58,19.8z M58,13.1c-1.5,0-2.7,1.2-2.7,2.7c0,1.5,1.2,2.7,2.7,2.7
			c1.5,0,2.7-1.2,2.7-2.7C60.7,14.3,59.5,13.1,58,13.1z"/>
	</g>
</g>
</svg>
