<?xml version="1.0" encoding="utf-8"?>
<!-- Generator: Adobe Illustrator 19.1.0, SVG Export Plug-In . SVG Version: 6.00 Build 0)  -->
<svg version="1.1" id="Layer_1" xmlns="http://www.w3.org/2000/svg" xmlns:xlink="http://www.w3.org/1999/xlink" x="0px" y="0px"
	 viewBox="0 0 612 792" style="enable-background:new 0 0 612 792;" xml:space="preserve">
<style type="text/css">
	.st0{fill:#DEDEDD;}
	.st1{fill:#CC5587;}
</style>
<path class="st0" d="M20,14.7c0,2.9-2.4,5.3-5.3,5.3H5.3C2.4,20,0,17.6,0,14.7V5.3C0,2.4,2.4,0,5.3,0h9.3C17.6,0,20,2.4,20,5.3V14.7
	z"/>
<path class="st1" d="M14.8,11.1h-3.7v3.7c0,0.1-0.1,0.2-0.2,0.2H9.1c-0.1,0-0.2-0.1-0.2-0.2v-3.7H5.2C5.1,11.1,5,11,5,10.9V9.1
	C5,9,5.1,8.9,5.2,8.9h3.7V5.2C8.9,5.1,9,5,9.1,5h1.7c0.1,0,0.2,0.1,0.2,0.2v3.7h3.7C14.9,8.9,15,9,15,9.1v1.7
	C15,11,14.9,11.1,14.8,11.1z"/>
</svg>
