<?xml version="1.0" encoding="utf-8"?>
<!-- Generator: Adobe Illustrator 19.1.0, SVG Export Plug-In . SVG Version: 6.00 Build 0)  -->
<svg version="1.1" id="Layer_1" xmlns="http://www.w3.org/2000/svg" xmlns:xlink="http://www.w3.org/1999/xlink" x="0px" y="0px"
	 viewBox="0 0 612 792" style="enable-background:new 0 0 612 792;" xml:space="preserve">
<style type="text/css">
	.st0{fill:#CC5587;}
	.st1{fill:#FFFFFF;}
</style>
<rect class="st0" width="40" height="40"/>
<g>
	<g>
		<path class="st1" d="M15.3,14.6c0,0-5.7,0.7-9.5,1.1c-0.3,0-0.6,0.3-0.8,0.6c-0.1,0.4,0,0.7,0.3,1c2.8,2.7,7,6.7,7,6.7
			c0,0-1.2,5.9-1.9,9.8c-0.1,0.4,0.1,0.7,0.4,1c0.3,0.2,0.7,0.2,1,0.1c3.3-2,8.3-4.9,8.3-4.9s5,3,8.3,4.9c0.3,0.2,0.7,0.2,1-0.1
			c0.3-0.2,0.4-0.6,0.4-1c-0.8-3.9-1.9-9.8-1.9-9.8s4.2-4,7-6.7c0.3-0.2,0.4-0.6,0.3-1c-0.1-0.4-0.4-0.6-0.8-0.6
			c-3.8-0.4-9.5-1.1-9.5-1.1s-2.4-5.5-3.9-9.1C20.7,5.2,20.4,5,20,5c-0.4,0-0.7,0.2-0.8,0.6C17.6,9.2,15.3,14.6,15.3,14.6z"/>
	</g>
</g>
</svg>
