<?xml version="1.0" encoding="utf-8"?>
<!-- Generator: Adobe Illustrator 19.1.0, SVG Export Plug-In . SVG Version: 6.00 Build 0)  -->
<svg version="1.1" id="Layer_1" xmlns="http://www.w3.org/2000/svg" xmlns:xlink="http://www.w3.org/1999/xlink" x="0px" y="0px"
	 viewBox="0 0 612 792" style="enable-background:new 0 0 612 792;" xml:space="preserve">
<style type="text/css">
	.st0{fill:#EFEEEE;}
	.st1{fill:#676767;}
</style>
<ellipse id="BG_11_" class="st0" cx="14.7" cy="15" rx="15" ry="15.1"/>
<path class="st1" d="M20.6,18.9l3.9-4.4h-2.7c-0.3-4.1-3.6-7.2-7.7-7.2c-4.2,0-7.7,3.5-7.7,7.7c0,4.3,3.4,7.7,7.7,7.7
	c1.7,0,3.4-0.6,4.7-1.6l0.3-0.2L17.5,19l-0.2,0.2c-0.9,0.7-1.9,1-3,1C11.3,20.2,9,17.9,9,15c0-2.9,2.3-5.2,5.1-5.2
	c2.7,0,4.8,2,5.1,4.6h-3L20.6,18.9z"/>
</svg>
