<?xml version="1.0" encoding="utf-8"?>
<!-- Generator: Adobe Illustrator 19.1.0, SVG Export Plug-In . SVG Version: 6.00 Build 0)  -->
<svg version="1.1" id="Layer_1" xmlns="http://www.w3.org/2000/svg" xmlns:xlink="http://www.w3.org/1999/xlink" x="0px" y="0px"
	 viewBox="0 0 612 792" style="enable-background:new 0 0 612 792;" xml:space="preserve">
<style type="text/css">
	.st0{fill:#CC5587;}
	.st1{fill:#FFFFFF;}
</style>
<ellipse id="BG_4_" class="st0" cx="14.7" cy="15" rx="15" ry="15.1"/>
<g id="Page-1_1_">
	<g id="Core_1_" transform="translate(-296.000000, -296.000000)">
		<g id="language_1_" transform="translate(296.000000, 296.000000)">
			<path id="Shape_1_" class="st1" d="M14.7,4.9c-5.5,0-10,4.5-10,10s4.5,10,10,10s10-4.5,10-10S20.2,4.9,14.7,4.9L14.7,4.9z
				 M21.6,10.9h-2.9c-0.3-1.3-0.8-2.4-1.4-3.6C19.1,8,20.7,9.2,21.6,10.9L21.6,10.9z M14.7,6.9c0.8,1.2,1.5,2.5,1.9,4h-3.8
				C13.2,9.5,13.9,8.1,14.7,6.9L14.7,6.9z M7,16.9c-0.2-0.6-0.3-1.3-0.3-2s0.1-1.4,0.3-2h3.4c-0.1,0.7-0.1,1.3-0.1,2s0.1,1.3,0.1,2
				H7L7,16.9z M7.8,18.9h2.9c0.3,1.3,0.8,2.4,1.4,3.6C10.3,21.8,8.7,20.6,7.8,18.9L7.8,18.9z M10.7,10.9H7.8c1-1.7,2.5-2.9,4.3-3.6
				C11.5,8.5,11,9.6,10.7,10.9L10.7,10.9z M14.7,22.9c-0.8-1.2-1.5-2.5-1.9-4h3.8C16.2,20.3,15.5,21.7,14.7,22.9L14.7,22.9z
				 M17,16.9h-4.6c-0.1-0.7-0.2-1.3-0.2-2s0.1-1.3,0.2-2h4.7c0.1,0.7,0.2,1.3,0.2,2S17.1,16.2,17,16.9L17,16.9z M17.3,22.5
				c0.6-1.1,1.1-2.3,1.4-3.6h2.9C20.7,20.6,19.1,21.8,17.3,22.5L17.3,22.5z M19.1,16.9c0.1-0.7,0.1-1.3,0.1-2s-0.1-1.3-0.1-2h3.4
				c0.2,0.6,0.3,1.3,0.3,2s-0.1,1.4-0.3,2H19.1L19.1,16.9z"/>
		</g>
	</g>
</g>
</svg>
