<?xml version="1.0" encoding="utf-8"?>
<!-- Generator: Adobe Illustrator 19.1.0, SVG Export Plug-In . SVG Version: 6.00 Build 0)  -->
<svg version="1.1" id="Layer_1" xmlns="http://www.w3.org/2000/svg" xmlns:xlink="http://www.w3.org/1999/xlink" x="0px" y="0px"
	 viewBox="0 0 612 792" style="enable-background:new 0 0 612 792;" xml:space="preserve">
<style type="text/css">
	.st0{fill:#CC5587;}
	.st1{fill:#FFFFFF;}
</style>
<rect class="st0" width="50" height="40"/>
<g>
	<g>
		<path class="st1" d="M25,10c-5.5,0-10,4.5-10,10c0,5.5,4.5,10,10,10c5.5,0,10-4.5,10-10C35,14.5,30.5,10,25,10z M31.5,18l-7.2,7.2
			c-0.1,0.1-0.4,0.1-0.5,0l-1.1-1.1c-0.1-0.1-0.4-0.4-0.5-0.5l-2.5-2.6c-0.1-0.1-0.1-0.2-0.1-0.3c0-0.1,0-0.2,0.1-0.3l1.1-1
			c0.1-0.1,0.2-0.1,0.3-0.1c0.1,0,0.2,0,0.3,0.1l2.4,2.5c0.1,0.1,0.4,0.1,0.5,0l5.6-5.6c0.1-0.1,0.4-0.1,0.5,0l1.1,1.1
			C31.6,17.6,31.6,17.8,31.5,18z"/>
	</g>
</g>
</svg>
