<?xml version="1.0" encoding="utf-8"?>
<!-- Generator: Adobe Illustrator 19.1.0, SVG Export Plug-In . SVG Version: 6.00 Build 0)  -->
<svg version="1.1" id="Layer_1" xmlns="http://www.w3.org/2000/svg" xmlns:xlink="http://www.w3.org/1999/xlink" x="0px" y="0px"
	 viewBox="0 0 612 792" style="enable-background:new 0 0 612 792;" xml:space="preserve">
<style type="text/css">
	.st0{fill:#CC5587;}
	.st1{fill:#FFFFFF;}
</style>
<rect class="st0" width="50" height="40"/>
<path class="st1" d="M34.7,27.1L29.6,22c0.7-1.2,1.2-2.6,1.2-4.1c0-4.4-3.5-7.9-7.9-7.9S15,13.5,15,17.9c0,4.4,3.5,7.9,7.9,7.9
	c1.5,0,2.9-0.4,4.1-1.2l5.1,5.1c0.4,0.4,1,0.4,1.3,0l1.3-1.3C35.1,28.1,35.1,27.5,34.7,27.1z M22.9,23.2c-2.9,0-5.3-2.4-5.3-5.3
	c0-2.9,2.4-5.3,5.3-5.3s5.3,2.4,5.3,5.3C28.2,20.8,25.8,23.2,22.9,23.2z"/>
</svg>
