<?xml version="1.0" encoding="utf-8"?>
<!-- Generator: Adobe Illustrator 19.1.0, SVG Export Plug-In . SVG Version: 6.00 Build 0)  -->
<svg version="1.1" id="Layer_1" xmlns="http://www.w3.org/2000/svg" xmlns:xlink="http://www.w3.org/1999/xlink" x="0px" y="0px"
	 viewBox="0 0 612 792" style="enable-background:new 0 0 612 792;" xml:space="preserve">
<style type="text/css">
	.st0{fill:#FFFFFF;}
</style>
<path class="st0" d="M101.2,63H63v38.2c0,1.2-1,2.2-2.2,2.2h-18c-1.2,0-2.2-1-2.2-2.2V63H2.2C1,63,0,61.9,0,60.7v-18
	c0-1.2,1-2.2,2.2-2.2h38.2V2.2c0-1.2,1-2.2,2.2-2.2h18C61.9,0,63,1,63,2.2v38.2h38.2c1.2,0,2.2,1,2.2,2.2v18
	C103.4,61.9,102.4,63,101.2,63z"/>
</svg>
