<?xml version="1.0" encoding="utf-8"?>
<!-- Generator: Adobe Illustrator 19.1.0, SVG Export Plug-In . SVG Version: 6.00 Build 0)  -->
<svg version="1.1" id="Layer_1" xmlns="http://www.w3.org/2000/svg" xmlns:xlink="http://www.w3.org/1999/xlink" x="0px" y="0px"
	 viewBox="0 0 612 792" style="enable-background:new 0 0 612 792;" xml:space="preserve">
<style type="text/css">
	.st0{fill:#CC5587;}
	.st1{fill:#FFFFFF;}
</style>
<ellipse id="BG_2_" class="st0" cx="14.7" cy="15" rx="15" ry="15.1"/>
<path class="st1" d="M20.6,10.8c0-1.6-0.7-3.1-1.7-4.2c-1.1-1.1-2.5-1.7-4.2-1.7s-3.1,0.7-4.2,1.7c-1.1,1.1-1.7,2.5-1.7,4.2
	s0.7,3.1,1.7,4.2c1.1,1.1,2.5,1.7,4.2,1.7s3.1-0.7,4.2-1.7C20,13.9,20.6,12.4,20.6,10.8z"/>
<path class="st1" d="M7.7,22.6c0,1.2,2.6,2.4,7.1,2.4c4.1,0,7.1-1.2,7.1-2.4c0-2.4-2.8-4.7-7.1-4.7C10.3,17.9,7.7,20.2,7.7,22.6z"/>
</svg>
