<?xml version="1.0" encoding="utf-8"?>
<!-- Generator: Adobe Illustrator 19.1.0, SVG Export Plug-In . SVG Version: 6.00 Build 0)  -->
<svg version="1.1" id="Layer_1" xmlns="http://www.w3.org/2000/svg" xmlns:xlink="http://www.w3.org/1999/xlink" x="0px" y="0px"
	 viewBox="0 0 612 792" style="enable-background:new 0 0 612 792;" xml:space="preserve">
<style type="text/css">
	.st0{fill:#676767;}
</style>
<path d="m597.368286,371.715424h-225.652863v224.981293c0,7.387451 -6.044312,13.431702 -13.431702,13.431702h-105.439026c-7.387436,0 -13.431702,-6.04425 -13.431702,-13.431702v-224.981293h-224.981277c-7.387445,0 -13.431718,-6.044312 -13.431718,-13.431702v-105.439026c0,-7.387436 6.044273,-13.431702 13.431718,-13.431702h224.981277v-224.981277c0,-7.387445 6.044266,-13.431718 13.431702,-13.431718h106.110596c7.387421,0 13.431732,6.044273 13.431732,13.431718v224.981277h224.981262c7.387451,0 13.431702,6.044266 13.431702,13.431702v106.110596c0,7.387421 -6.04425,12.760132 -13.431702,12.760132z" class="st0"/>
</svg>
