<?xml version="1.0" encoding="utf-8"?>
<!-- Generator: Adobe Illustrator 19.1.0, SVG Export Plug-In . SVG Version: 6.00 Build 0)  -->
<svg version="1.1" id="Layer_1" xmlns="http://www.w3.org/2000/svg" xmlns:xlink="http://www.w3.org/1999/xlink" x="0px" y="0px"
	 viewBox="0 0 612 792" style="enable-background:new 0 0 612 792;" xml:space="preserve">
<style type="text/css">
	.st0{fill:#676767;}
</style>
<path class="st0" d="m418.008514,308.140442l168.404205,-169.755127c24.765381,-24.765327 24.765381,-65.740707 0,-90.506016l-22.513916,-22.513948c-24.76532,-24.765351 -64.840118,-24.765351 -89.605438,0l-168.404297,169.755117l-168.404312,-169.755117c-24.765343,-24.765351 -64.840157,-24.765351 -89.605476,0l-22.513941,22.513948c-24.765349,24.765324 -24.765349,65.740704 0,90.506016l168.404284,169.755127l-168.404284,169.755127c-24.765349,24.76532 -24.765349,65.740662 0,90.506104l22.513941,22.513916c24.765327,24.765259 64.840149,24.765259 89.605476,0l168.404312,-169.755127l168.404297,169.755127c24.76532,24.765259 64.840118,24.765259 89.605438,0l22.513916,-22.513916c24.765381,-24.765442 24.765381,-65.740784 0,-90.506104l-168.404205,-169.755127z"/>
</svg>
