<?xml version="1.0" encoding="utf-8"?>
<!-- Generator: Adobe Illustrator 19.1.0, SVG Export Plug-In . SVG Version: 6.00 Build 0)  -->
<svg version="1.1" id="Layer_1" xmlns="http://www.w3.org/2000/svg" xmlns:xlink="http://www.w3.org/1999/xlink" x="0px" y="0px"
	 viewBox="0 0 612 792" style="enable-background:new 0 0 612 792;" xml:space="preserve">
<style type="text/css">
	.st0{fill:#CC5587;}
	.st1{fill:#FFFFFF;}
</style>
<rect class="st0" width="50" height="40"/>
<g>
	<rect x="24.8" y="24.3" class="st1" width="0.7" height="4.3"/>
	<path class="st1" d="M31.5,16.8c0-0.1,0-0.1,0-0.2c0-2.9-2.4-5.2-5.2-5.2c-2.1,0-3.8,1.2-4.7,3c-0.4-0.2-0.8-0.3-1.2-0.3
		c-1.3,0-2.4,1.1-2.6,2.3c-1.6,0.5-2.7,2.1-2.7,3.9c0,2.2,1.8,4,4,4h2.7h1.4h1.6v-6.5l-2.4,2.4l-0.5-0.5l3.3-3.3l3.3,3.3L28,20.2
		l-2.5-2.4v6.5h6c2,0,3.7-1.7,3.7-3.7C35.1,18.6,33.6,16.8,31.5,16.8z"/>
</g>
</svg>
