<?xml version="1.0" encoding="utf-8"?>
<!-- Generator: Adobe Illustrator 19.1.0, SVG Export Plug-In . SVG Version: 6.00 Build 0)  -->
<svg version="1.1" id="Layer_1" xmlns="http://www.w3.org/2000/svg" xmlns:xlink="http://www.w3.org/1999/xlink" x="0px" y="0px"
	 viewBox="0 0 612 792" style="enable-background:new 0 0 612 792;" xml:space="preserve">
<style type="text/css">
	.st0{fill:#676767;}
</style>
<g>
	<path class="st0" d="M172.2,62.5H8.4c-8.3,0-8.7,4.9-8.3,10.8l6.1,96.5c0.4,5.9,1.6,10.8,9.9,10.8h148.7c8.5,0,9.5-4.9,9.9-10.8
		l5.7-97.7C180.9,66.2,180.5,62.5,172.2,62.5z"/>
	<g>
		<path class="st0" d="M170.3,26.7c-0.2-7-2.1-8.6-7.1-8.6c0,0-57.1,0-67.3,0s-11.5,0.2-19.2-9.8C70.2-0.1,72.7,0,59.4,0
			C48.8,0,24,0,24,0c-8.2,0-11.1-0.8-11.9,9.4c-0.7,9.4-2.4,32.3-2.6,35.8h161.5L170.3,26.7z"/>
	</g>
</g>
</svg>
