<?xml version="1.0" encoding="utf-8"?>
<!-- Generator: Adobe Illustrator 19.1.0, SVG Export Plug-In . SVG Version: 6.00 Build 0)  -->
<svg version="1.1" id="Layer_1" xmlns="http://www.w3.org/2000/svg" xmlns:xlink="http://www.w3.org/1999/xlink" x="0px" y="0px"
	 viewBox="0 0 612 792" style="enable-background:new 0 0 612 792;" xml:space="preserve">
<style type="text/css">
	.st0{fill:#FFFFFF;}
</style>
<path class="st0" d="M83.7,21.8c-1.9-3.1-4.2-6.2-7.1-9c-2.9-2.9-6-5.2-9.2-7.1L73,0c0,0,8.1,0,12.2,4.1c4.1,4.1,4.1,12.2,4.1,12.2
	L83.7,21.8z M36.5,69H20.3V52.7l2-2c3.3,1.6,6.6,3.8,9.5,6.7c3,3,5.1,6.2,6.7,9.5L36.5,69z M79,26.4L43.1,62.3
	c-1.9-3.1-4.2-6.2-7.1-9c-2.9-2.9-6-5.2-9.2-7.1l36-36c3.3,1.6,6.6,3.7,9.5,6.7C75.3,19.9,77.5,23.2,79,26.4z M12.2,12.2v64.9h64.9
	V48.7l12.2-12.3v44.8c0,4.5-3.6,8.1-8.1,8.1h-73c-4.5,0-8.1-3.6-8.1-8.1v-73C0,3.6,3.6,0,8.1,0h44.7L40.6,12.2H12.2z"/>
</svg>
