<?xml version="1.0" encoding="utf-8"?>
<!-- Generator: Adobe Illustrator 19.1.0, SVG Export Plug-In . SVG Version: 6.00 Build 0)  -->
<svg version="1.1" id="Layer_1" xmlns="http://www.w3.org/2000/svg" xmlns:xlink="http://www.w3.org/1999/xlink" x="0px" y="0px"
	 viewBox="0 0 612 792" style="enable-background:new 0 0 612 792;" xml:space="preserve">
<style type="text/css">
	.st0{fill:#CC5587;}
	.st1{fill:#FFFFFF;}
</style>
<ellipse id="BG_12_" class="st0" cx="14.7" cy="15" rx="15" ry="15.1"/>
<path class="st1" d="M22.4,15.9c0-0.3,0.1-0.6,0.1-1s0-0.7-0.1-1l2.2-1.7c0.2-0.2,0.3-0.4,0.1-0.6l-2.1-3.5C22.5,8,22.2,7.9,22,8
	l-2.6,1c-0.5-0.4-1.1-0.7-1.7-1l-0.4-2.7c0-0.2-0.3-0.4-0.5-0.4h-4.1c-0.3,0-0.5,0.2-0.5,0.4L11.8,8c-0.6,0.3-1.2,0.6-1.7,1L7.5,8
	C7.3,7.9,7,8,6.9,8.2l-2.1,3.5c-0.1,0.2-0.1,0.5,0.1,0.6l2.2,1.7c0,0.3-0.1,0.6-0.1,1s0,0.7,0.1,1l-2.2,1.7
	c-0.2,0.2-0.3,0.4-0.1,0.6l2.1,3.5C7,21.9,7.3,22,7.5,21.9l2.6-1c0.5,0.4,1.1,0.7,1.7,1l0.4,2.7c0,0.2,0.3,0.4,0.5,0.4h4.1
	c0.3,0,0.5-0.2,0.5-0.4l0.4-2.7c0.6-0.3,1.2-0.6,1.7-1l2.6,1c0.2,0.1,0.5,0,0.6-0.2l2.1-3.5c0.1-0.2,0.1-0.5-0.1-0.6L22.4,15.9z
	 M14.7,18.4c-2,0-3.6-1.6-3.6-3.5s1.6-3.5,3.6-3.5s3.6,1.6,3.6,3.5S16.7,18.4,14.7,18.4z"/>
</svg>
