<?xml version="1.0" encoding="utf-8"?>
<!-- Generator: Adobe Illustrator 19.1.0, SVG Export Plug-In . SVG Version: 6.00 Build 0)  -->
<svg version="1.1" id="Layer_1" xmlns="http://www.w3.org/2000/svg" xmlns:xlink="http://www.w3.org/1999/xlink" x="0px" y="0px"
	 viewBox="0 0 612 792" style="enable-background:new 0 0 612 792;" xml:space="preserve">
<style type="text/css">
	.st1{fill:#CC5587;}
</style>
<path class="st1" d="m496.28241,604.117615l-186.741241,-193.923523l-186.741165,186.741211c-7.182335,7.182312 -14.364723,7.182312 -21.547066,0l-86.188217,-86.188324c-7.182346,-7.182312 -7.182346,-14.364685 0,-21.546967l186.741158,-186.74118l-193.9235,-186.741196c-7.182379,-7.182335 -7.182379,-14.364723 0,-21.547073l86.188224,-86.18821c7.182343,-7.182346 14.364685,-7.182346 21.547073,0l193.923492,186.741158l186.741241,-186.741158c7.182312,-7.182346 14.364655,-7.182346 21.546997,0l86.188232,86.18821c7.182373,7.18235 7.182373,14.364738 0,21.547073l-186.74115,186.741196l186.74115,186.74118c7.182373,7.182281 7.182373,14.364655 0,21.546967l-86.188232,86.188324c-7.182343,7.182312 -14.364685,7.182312 -21.546997,7.182312l0,0l0,0l0,0l0,0z"/>
</svg>
