<?xml version="1.0" encoding="utf-8"?>
<!-- Generator: Adobe Illustrator 19.1.0, SVG Export Plug-In . SVG Version: 6.00 Build 0)  -->
<svg version="1.1" id="Layer_1" xmlns="http://www.w3.org/2000/svg" xmlns:xlink="http://www.w3.org/1999/xlink" x="0px" y="0px"
	 viewBox="0 0 612 792" style="enable-background:new 0 0 612 792;" xml:space="preserve">
<style type="text/css">
	.st0{fill:#EFEEEE;}
	.st1{fill:#676767;}
</style>
<ellipse id="BG_13_" class="st0" cx="14.7" cy="15" rx="15" ry="15.1"/>
<path class="st1" d="M22.4,16c0-0.3,0.1-0.6,0.1-1c0-0.3,0-0.7-0.1-1l2.2-1.7c0.2-0.2,0.3-0.4,0.1-0.6l-2.1-3.5
	C22.5,8.1,22.2,8,22,8.1l-2.6,1c-0.5-0.4-1.1-0.7-1.7-1l-0.4-2.6c0-0.2-0.3-0.4-0.5-0.4h-4.1c-0.3,0-0.5,0.2-0.5,0.4l-0.4,2.6
	c-0.6,0.3-1.2,0.6-1.7,1l-2.6-1C7.3,8,7,8.1,6.9,8.3l-2.1,3.5c-0.1,0.2-0.1,0.5,0.1,0.6l2.2,1.7c0,0.3-0.1,0.6-0.1,1
	c0,0.3,0,0.7,0.1,1l-2.2,1.7c-0.2,0.2-0.3,0.4-0.1,0.6l2.1,3.5C7,22,7.3,22.1,7.5,22l2.6-1c0.5,0.4,1.1,0.7,1.7,1l0.4,2.7
	c0,0.2,0.3,0.4,0.5,0.4h4.1c0.3,0,0.5-0.2,0.5-0.4l0.4-2.7c0.6-0.3,1.2-0.6,1.7-1l2.6,1c0.2,0.1,0.5,0,0.6-0.2l2.1-3.5
	c0.1-0.2,0.1-0.5-0.1-0.6L22.4,16z M14.7,18.5c-2,0-3.6-1.6-3.6-3.5c0-1.9,1.6-3.5,3.6-3.5c2,0,3.6,1.6,3.6,3.5
	C18.3,17,16.7,18.5,14.7,18.5z"/>
</svg>
