<?xml version="1.0" encoding="utf-8"?>
<!-- Generator: Adobe Illustrator 19.1.0, SVG Export Plug-In . SVG Version: 6.00 Build 0)  -->
<svg version="1.1" id="Layer_1" xmlns="http://www.w3.org/2000/svg" xmlns:xlink="http://www.w3.org/1999/xlink" x="0px" y="0px"
	 viewBox="0 0 612 792" style="enable-background:new 0 0 612 792;" xml:space="preserve">
<style type="text/css">
	.st0{fill:#676767;}
</style>
<path class="st0" d="M94.3,24.5c-2.1-3.5-4.8-7-8-10.2c-3.3-3.2-6.8-5.9-10.4-8L82.2,0c0,0,9.1,0,13.7,4.6s4.6,13.7,4.6,13.7
	L94.3,24.5z M41.1,77.7H22.8V59.4l2.2-2.2c3.7,1.8,7.4,4.2,10.7,7.5c3.3,3.3,5.8,7,7.5,10.7L41.1,77.7z M89,29.8L48.6,70.2
	c-2.1-3.5-4.8-7-8-10.2c-3.3-3.2-6.8-5.9-10.4-8l40.5-40.5c3.7,1.8,7.4,4.2,10.7,7.5C84.8,22.4,87.2,26.1,89,29.8z M13.7,13.7v73.1
	h73.1v-32l13.7-13.9v50.4c0,5.1-4.1,9.1-9.1,9.1H9.1c-5,0-9.1-4.1-9.1-9.1V9.1C0,4.1,4.1,0,9.1,0h50.3L45.7,13.7H13.7z"/>
</svg>
