<?xml version="1.0" encoding="utf-8"?>
<!-- Generator: Adobe Illustrator 19.1.0, SVG Export Plug-In . SVG Version: 6.00 Build 0)  -->
<svg version="1.1" id="Layer_1" xmlns="http://www.w3.org/2000/svg" xmlns:xlink="http://www.w3.org/1999/xlink" x="0px" y="0px"
	 viewBox="0 0 612 792" style="enable-background:new 0 0 612 792;" xml:space="preserve">
<style type="text/css">
	.st0{fill:#FFFFFF;}
</style>
<g>
	<path class="st0" d="M83.6,30.4H4.1c-4,0-4.2,2.4-4,5.2l3,46.9c0.2,2.9,0.8,5.2,4.8,5.2h72.3c4.1,0,4.6-2.4,4.8-5.2L87.7,35
		C87.9,32.2,87.7,30.4,83.6,30.4z"/>
	<g>
		<path class="st0" d="M82.8,13c-0.1-3.4-1-4.2-3.5-4.2c0,0-27.7,0-32.7,0S41,8.9,37.2,4c-3.1-4.1-1.9-4-8.4-4c-5.2,0-17.2,0-17.2,0
			c-4,0-5.4-0.4-5.8,4.6C5.6,9.1,4.8,20.2,4.7,21.9h78.5L82.8,13z"/>
	</g>
</g>
</svg>
