<?xml version="1.0" encoding="utf-8"?>
<!-- Generator: Adobe Illustrator 19.1.0, SVG Export Plug-In . SVG Version: 6.00 Build 0)  -->
<svg version="1.1" id="Layer_1" xmlns="http://www.w3.org/2000/svg" xmlns:xlink="http://www.w3.org/1999/xlink" x="0px" y="0px"
	 viewBox="0 0 612 792" style="enable-background:new 0 0 612 792;" xml:space="preserve">
<style type="text/css">
	.st0{fill:#EFEEEE;}
	.st1{fill:#676767;}
</style>
<ellipse id="BG_10_" class="st0" cx="14.7" cy="15" rx="15" ry="15.1"/>
<path class="st1" d="M15.2,6.3c-4.7,0-8.6,3.8-8.6,8.6H3.7l3.7,3.7l0.1,0.1l3.8-3.8H8.5c0-3.7,3-6.7,6.7-6.7c3.7,0,6.7,3,6.7,6.7
	c0,3.7-3,6.7-6.7,6.7c-1.8,0-3.5-0.8-4.7-2L9.1,21c1.5,1.6,3.7,2.5,6.1,2.5c4.7,0,8.6-3.8,8.6-8.6S19.9,6.3,15.2,6.3z M14.2,11.1
	v4.8l4.1,2.4l0.7-1.2l-3.3-2v-4H14.2z"/>
</svg>
